<?xml version="1.0" standalone="no"?>
<!DOCTYPE svg PUBLIC "-//W3C//DTD SVG 1.1//EN" "http://www.w3.org/Graphics/SVG/1.1/DTD/svg11.dtd" >
<svg xmlns="http://www.w3.org/2000/svg">
<metadata>Generated by IcoMoon</metadata>
<defs>
<font id="icomoon" horiz-adv-x="1024">
<font-face units-per-em="1024" ascent="960" descent="-64" />
<missing-glyph horiz-adv-x="1024" />
<glyph unicode="&#x20;" horiz-adv-x="512" d="" />
<glyph unicode="&#xe900;" glyph-name="add-plus" horiz-adv-x="999" d="M974.049 355.59h-379.629v-379.629h-189.815v379.629h-379.629v189.815h379.629v379.629h189.815v-379.629h379.629v-189.815z" />
<glyph unicode="&#xe901;" glyph-name="arrow-left" horiz-adv-x="999" d="M760.058-24.039l-555.657 474.537 555.657 474.537 34.566-40.436-508.304-434.101 508.304-434.101z" />
<glyph unicode="&#xe902;" glyph-name="arrow-right" horiz-adv-x="999" d="M238.967-24.039l-34.566 40.436 508.304 434.101-508.304 434.101 34.566 40.436 555.657-474.537z" />
<glyph unicode="&#xe903;" glyph-name="calendar" horiz-adv-x="999" d="M0 44.644c0-51.7 47.953-93.659 107.045-93.659h784.933c59.092 0 107.045 41.959 107.045 93.659v530.732h-999.024v-530.732zM713.578 427.095c0 12.862 12.063 23.402 26.774 23.402h89.188c14.736 0 26.774-10.54 26.774-23.427v-78.024c0-12.887-12.038-23.427-26.774-23.427h-89.188c-14.736 0-26.774 10.54-26.774 23.427v78.049zM713.578 177.339c0 12.862 12.063 23.402 26.774 23.402h89.188c14.736 0 26.774-10.54 26.774-23.427v-78.024c0-12.887-12.038-23.427-26.774-23.427h-89.188c-14.736 0-26.774 10.54-26.774 23.427v78.049zM428.157 427.095c0 12.862 12.038 23.402 26.749 23.402h89.213c14.711 0 26.749-10.54 26.749-23.427v-78.024c0-12.887-12.038-23.427-26.749-23.427h-89.213c-14.711 0-26.749 10.54-26.749 23.427v78.049zM428.157 177.339c0 12.862 12.038 23.402 26.749 23.402h89.213c14.711 0 26.749-10.54 26.749-23.427v-78.024c0-12.887-12.038-23.427-26.749-23.427h-89.213c-14.711 0-26.749 10.54-26.749 23.427v78.049zM142.711 427.095c0 12.862 12.038 23.402 26.774 23.402h89.188c14.736 0 26.774-10.54 26.774-23.427v-78.024c0-12.887-12.063-23.427-26.774-23.427h-89.188c-14.736 0-26.774 10.54-26.774 23.427v78.049zM142.711 177.339c0 12.862 12.038 23.402 26.774 23.402h89.188c14.736 0 26.774-10.54 26.774-23.427v-78.024c0-12.887-12.063-23.427-26.774-23.427h-89.188c-14.736 0-26.774 10.54-26.774 23.427v78.049zM891.979 825.132h-106.996v93.659c-0.025 17.158-16.084 31.22-35.715 31.22h-71.355c-19.631 0-35.69-14.061-35.69-31.22v-93.659h-285.421v93.659c0 17.158-16.059 31.22-35.69 31.22h-71.355c-19.631 0-35.69-14.061-35.69-31.22v-93.659h-107.020c-59.092 0-107.045-41.959-107.045-93.659v-93.659h999.024v93.659c0 51.7-47.953 93.659-107.045 93.659z" />
<glyph unicode="&#xe904;" glyph-name="clock" horiz-adv-x="999" d="M499.512 950.010c-275.931 0-499.512-223.582-499.512-499.512s223.582-499.512 499.512-499.512 499.512 223.582 499.512 499.512-223.582 499.512-499.512 499.512zM614.525 244.848l-177.652 129.124c-6.005 4.475-9.855 11.552-9.865 19.529v338.971c0.028 13.332 10.821 24.134 24.147 24.176h96.71c13.33-0.043 24.123-10.844 24.151-24.174v-277.357l127.9-93.034c10.889-7.867 13.087-22.978 5.245-33.842l-56.795-78.174c-4.486-6.003-11.575-9.847-19.561-9.847-5.366 0-10.326 1.735-14.35 4.675l0.069-0.048z" />
<glyph unicode="&#xe905;" glyph-name="close" horiz-adv-x="999" d="M999.024 849.383l-100.627 100.627-398.885-398.91-398.885 398.91-100.627-100.627 398.885-398.885-398.885-398.885 100.627-100.627 398.885 398.885 398.885-398.885 100.627 100.627-398.885 398.885 398.885 398.885z" />
<glyph unicode="&#xe906;" glyph-name="credit-card" horiz-adv-x="999" d="M84.293 213.229v533.854h830.439v-533.854h-830.439zM914.732 806.4h-830.439c-32.76 0-59.317-26.557-59.317-59.317v-593.171c0-32.76 26.557-59.317 59.317-59.317v0h830.439c32.76 0 59.317 26.557 59.317 59.317v0 593.171c0 32.76-26.557 59.317-59.317 59.317v0zM855.415 450.498h-237.268v-177.951h237.268v177.951z" />
<glyph unicode="&#xe907;" glyph-name="download" horiz-adv-x="999" d="M531.156 314.031v357.9h-63.288v-357.476l-121.731 141.487-47.953-41.135 201.403-234.221 202.128 234.096-47.953 41.31-122.63-141.961zM499.512 925.034c-262.069 0-474.537-212.468-474.537-474.537s212.468-474.537 474.537-474.537 474.537 212.468 474.537 474.537-212.468 474.537-474.537 474.537zM499.512 39.224c-226.779 0-411.273 184.495-411.273 411.273s184.52 411.273 411.273 411.273c226.779 0 411.273-184.52 411.273-411.273 0-226.779-184.495-411.273-411.273-411.273z" />
<glyph unicode="&#xe908;" glyph-name="heart" horiz-adv-x="999" d="M902.044 881.701c-106.896 104.148-265.915 85.417-364.069-30.345l-38.462-45.256-38.412 45.281c-97.954 115.712-257.174 134.444-364.094 30.32-122.53-119.533-128.974-334.049-19.331-463.597l377.556-445.565c24.401-28.747 64.012-28.747 88.414 0l377.531 445.565c109.843 129.548 103.399 344.064-19.131 463.597z" />
<glyph unicode="&#xe909;" glyph-name="home" horiz-adv-x="999" d="M499.512 869.888l-380.878-233.472v-613.201h241.314v330.802h281.225v-330.802h239.241v614.9l-380.903 231.774zM499.512 925.034l425.709-250.755v-698.318h-328.854v330.802h-191.613v-330.802h-330.927v696.070l425.684 253.003z" />
<glyph unicode="&#xe90a;" glyph-name="home-active" horiz-adv-x="999" d="M926.096-24.039h-331.776v337.171h-189.59v-337.171h-331.801v700.816l426.583 248.258 426.583-246.584v-702.489z" />
<glyph unicode="&#xe90b;" glyph-name="library" horiz-adv-x="999" d="M572.99 908.8l401.058-900.695-46.53-20.83-401.058 900.72 46.53 20.805zM24.976-12.101v925.796h51.45v-925.796h-51.45zM333.574-12.101v925.796h51.45v-925.796h-51.45z" />
<glyph unicode="&#xe90c;" glyph-name="library-active" horiz-adv-x="999" d="M592.921 898.26l381.128-855.964-89.612-39.561-381.128 855.964 89.588 39.561zM24.976 13.2v879.816h97.755v-879.816h-97.755zM269.362 13.2v879.816h97.78v-879.816h-97.755z" />
<glyph unicode="&#xe90d;" glyph-name="music" horiz-adv-x="999" d="M329.478 788.468v-535.852c-31.355 38.793-78.923 63.403-132.24 63.438h-0.006c-93.87-0.114-169.935-76.187-170.034-170.049v-0.010c0.114-93.861 76.173-169.92 170.023-170.034h0.011c93.861 0.114 169.92 76.173 170.034 170.023v611.913l566.796 120.482v-510.676c-31.364 38.786-78.944 63.382-132.27 63.388h-0.001c-93.861-0.114-169.92-76.173-170.034-170.023v-0.011c0.114-93.861 76.173-169.92 170.023-170.034h0.011c93.861 0.114 169.92 76.173 170.034 170.023v663.988l-642.373-136.567zM197.232 13.724c-73.012 0.085-132.175 59.257-132.246 132.264v0.007c0.071 73.009 59.237 132.175 132.239 132.246h0.007c73.009-0.071 132.175-59.237 132.246-132.239v-0.007c-0.099-72.997-59.248-132.146-132.236-132.246h-0.010zM801.792 128.812c-73.003 0.085-132.161 59.243-132.246 132.238v0.008c0.085 73.008 59.24 132.171 132.236 132.271h0.010c73.006-0.099 132.161-59.263 132.246-132.263v-0.008c-0.085-73.003-59.243-132.161-132.238-132.246h-0.008z" />
<glyph unicode="&#xe90e;" glyph-name="next" horiz-adv-x="1074" d="M15.335 950.010l865.255-499.512-865.255-499.512v999.024zM1054.645 895.413h-161.767v-889.831h161.767v889.831z" />
<glyph unicode="&#xe90f;" glyph-name="pause" horiz-adv-x="674" d="M227.678 950.010h-222.008v-999.024h222.033v999.024zM671.694 950.010h-222.008v-999.024h222.008v999.024z" />
<glyph unicode="&#xe910;" glyph-name="play" d="M916.205 450.498l-822.047 474.537v-949.073l822.022 474.537z" />
<glyph unicode="&#xe911;" glyph-name="prev" horiz-adv-x="1049" d="M1039.335-49.015l-865.28 499.512 865.28 499.512v-999.024zM0 5.582h161.792v889.831h-161.792v-889.831z" />
<glyph unicode="&#xe912;" glyph-name="round" horiz-adv-x="999" d="M499.512 925.034c-262.079 0-474.537-212.457-474.537-474.537s212.457-474.537 474.537-474.537v0c262.079 0 474.537 212.457 474.537 474.537s-212.457 474.537-474.537 474.537v0zM499.512 213.229c-131.040 0-237.268 106.229-237.268 237.268s106.229 237.268 237.268 237.268v0c131.040 0 237.268-106.229 237.268-237.268s-106.229-237.268-237.268-237.268v0z" />
<glyph unicode="&#xe913;" glyph-name="search" horiz-adv-x="999" d="M731.785 245.872l204.101-239.491-35.39-30.42-204.65 239.491c-70.431-53.473-149.704-80.197-237.818-80.197-53.448 0-104.623 10.415-153.475 31.22-48.852 20.855-90.886 48.877-126.102 84.093s-63.238 77.25-84.068 126.102c-19.751 44.946-31.246 97.34-31.246 152.418 0 0.372 0.001 0.743 0.002 1.115v-0.058c0 53.448 10.415 104.623 31.244 153.475s48.852 90.886 84.068 126.102c35.216 35.216 77.25 63.238 126.102 84.068 44.943 19.751 97.333 31.246 152.408 31.246 0.375 0 0.75-0.001 1.126-0.002h-0.058c53.448 0 104.623-10.415 153.475-31.244s90.911-48.852 126.127-84.068c35.191-35.216 63.188-77.25 84.043-126.127 19.751-44.94 31.246-97.326 31.246-152.398 0-0.37-0.001-0.74-0.002-1.11v0.058c0-54.946-10.69-106.921-32.069-155.973-21.946-50.054-51.984-92.67-88.909-128.176l-0.129-0.123zM458.053 181.685c63.038 0 121.282 15.61 174.754 46.754 53.021 30.964 95.962 73.905 126.041 125.29l0.885 1.636c31.17 53.473 46.729 111.741 46.729 174.779s-15.56 121.307-46.704 174.779c-30.972 53.022-73.921 95.963-125.314 126.041l-1.637 0.886c-53.448 31.145-111.716 46.729-174.779 46.729-63.038 0-121.307-15.585-174.754-46.729-53.029-30.963-95.978-73.904-126.066-125.29l-0.885-1.636c-31.145-53.448-46.704-111.741-46.704-174.779s15.56-121.307 46.704-174.779c30.971-53.024 73.92-95.965 125.314-126.041l1.637-0.885c53.448-31.145 111.716-46.729 174.754-46.729z" />
<glyph unicode="&#xe914;" glyph-name="search-active" horiz-adv-x="999" d="M735.282 272.721l202.552-237.418-69.682-59.342-202.028 236.869c-65.336-43.557-137.391-65.336-216.164-65.336-52.624 0-102.999 10.24-151.102 30.745s-89.488 48.103-124.129 82.769c-34.691 34.666-62.264 76.051-82.769 124.129-19.451 44.256-30.771 95.846-30.771 150.080 0 0.359 0 0.719 0.001 1.078v-0.056c0 52.649 10.24 103.024 30.77 151.102 20.48 48.103 48.078 89.488 82.744 124.154s76.051 62.264 124.154 82.769c44.253 19.451 95.839 30.771 150.070 30.771 0.363 0 0.726-0.001 1.088-0.002h-0.056c52.624 0 102.999-10.24 151.102-30.77 48.103-20.505 89.488-48.103 124.129-82.769 34.691-34.666 62.264-76.051 82.769-124.129 19.451-44.248 30.771-95.829 30.771-150.055 0-0.368-0.001-0.736-0.002-1.104v0.057c0-33.392-4.171-66.060-12.513-98.004-8.88-33.935-21.083-63.642-36.645-91.199l0.98 1.886c-16.319-28.921-34.633-53.911-55.514-76.492l0.243 0.266zM449.961 238.954c40.286 0 78.773 7.892 115.437 23.702 36.664 15.785 68.233 36.939 94.732 63.438 26.499 26.474 47.653 58.068 63.438 94.732 15.81 36.664 23.702 75.152 23.702 115.437s-7.892 78.773-23.702 115.437c-15.785 36.664-36.939 68.233-63.438 94.732-26.474 26.499-58.068 47.653-94.732 63.438-33.752 14.965-73.123 23.678-114.529 23.678-0.32 0-0.639-0.001-0.958-0.002h0.050c-40.286 0-78.773-7.892-115.437-23.677s-68.233-36.939-94.732-63.438-47.653-58.068-63.438-94.732c-14.965-33.751-23.678-73.12-23.678-114.523 0-0.321 0.001-0.642 0.002-0.964v0.050c0-40.311 7.892-78.773 23.677-115.437s36.939-68.233 63.438-94.732c26.474-26.524 58.068-47.653 94.732-63.438 36.664-15.81 75.152-23.702 115.437-23.702z" />
<glyph unicode="&#xe915;" glyph-name="volume-down" horiz-adv-x="924" d="M518.494 809.447l-212.193-173.58h-243.362c-31.619 0-57.219-20.98-57.219-46.829v-280.976c0-25.85 25.6-46.829 57.219-46.829h243.387l212.193-173.58c35.84-29.321 97.705-8.716 97.705 33.118v655.535c0 41.909-61.915 62.414-97.705 33.143zM812.307 598.553c-27.623 12.363-62.464 4.221-77.774-18.432-15.235-22.653-5.145-51.125 22.528-63.638 30.795-13.861 49.926-39.886 49.926-67.934s-19.131-54.097-49.901-67.934c-27.673-12.488-37.763-40.96-22.528-63.613 15.335-22.753 50.201-30.845 77.774-18.457 67.309 30.345 109.143 87.814 109.143 150.028 0 62.189-41.834 119.633-109.168 149.979z" />
<glyph unicode="&#xe916;" glyph-name="volume-off" horiz-adv-x="949" d="M791.427 811.47l-318.364-173.655h-364.894c-22.753 0-44.581-4.945-60.691-13.737-16.109-8.741-25.15-20.68-25.15-33.093v-280.976c0-12.413 9.041-24.326 25.15-33.118s37.938-13.712 60.691-13.712h365.118l318.139-173.655c53.673-29.271 146.682-8.741 146.682 33.168v655.61c0 41.884-93.009 62.439-146.682 33.168z" />
<glyph unicode="&#xe917;" glyph-name="volume-up" horiz-adv-x="949" d="M355.877 811.395l-141.462-173.58h-162.217c-21.104 0-38.163-20.98-38.163-46.829v-280.976c0-25.85 17.058-46.829 38.163-46.829h162.242l141.462-173.58c23.902-29.296 65.136-8.716 65.136 33.143v655.51c0 41.884-41.26 62.414-65.136 33.118zM726.84 911.048c-17.783 14.286-41.634 8.267-53.298-13.562-11.664-21.804-6.693-51.075 11.064-65.386 105.347-84.867 168.236-227.528 168.236-381.627s-62.889-296.76-168.236-381.627c-17.758-14.261-22.728-43.582-11.064-65.361 11.214-20.88 34.866-28.397 53.298-13.562 127.051 102.375 202.927 274.557 202.927 460.575s-75.876 358.175-202.927 460.55zM777.141 450.498c0 123.954-50.95 237.918-136.367 304.852-17.783 13.936-41.385 7.468-52.649-14.561-11.264-21.979-5.994-51.125 11.788-65.086 63.188-49.527 100.901-133.719 100.901-225.205s-37.713-175.678-100.901-225.205c-17.783-13.936-23.052-43.058-11.788-65.086 10.365-20.23 33.592-29.546 52.674-14.561 85.392 66.935 136.367 180.873 136.367 304.852zM551.761 600.476c-18.407 12.363-41.659 4.246-51.849-18.432-10.165-22.653-3.447-51.125 15.010-63.613 20.53-13.836 33.292-39.886 33.292-67.934s-12.738-54.097-33.268-67.934c-18.482-12.488-25.175-40.96-15.035-63.613 10.24-22.753 33.467-30.845 51.849-18.432 44.881 30.32 72.779 87.789 72.779 150.004 0 62.189-27.898 119.633-72.779 149.954z" />
</font>
</defs>
</svg>
